<?xml version="1.0" encoding="utf-8"?>
<!-- Generator: Adobe Illustrator 19.1.0, SVG Export Plug-In . SVG Version: 6.00 Build 0)  -->
<svg version="1.1" id="Layer_1" xmlns="http://www.w3.org/2000/svg" xmlns:xlink="http://www.w3.org/1999/xlink" x="0px" y="0px"
	 viewBox="0 0 300 300" style="enable-background:new 0 0 300 300;" xml:space="preserve">
<path d="M261.2,250.8c-1.6-1.8-3.9-2.8-6.2-2.9c-33.1-1.6-66.1,1.6-97.9,4.6l-2.1,0.2c-13.6,1.3-27.4,2.6-41.3,3.6
	c10.3-28.9,9.5-67.9,7.4-107.2c0.3,0,0.6-0.1,0.9-0.2c15.6-6,31.6-13.2,47-20.2l3.7-1.7c23.5-10.6,47.9-21.5,72.3-28.9l14.2-4.3
	c1.9-0.6,3.2-2.3,3.2-4.3s-1.3-3.7-3.2-4.3L245,80.9c-11.6-3.6-25-6.9-37.7-9.9c-30.8-7.4-64.8-15.6-86.6-30.1
	c1.4-8.6,3.4-16.5,6.2-23.3c1-2.2,1-4.7,0.1-6.9c-0.9-2.2-2.6-3.9-4.8-4.9c-2.2-1-4.7-1-6.9-0.1c-2.2,0.9-3.9,2.6-4.9,4.9
	c-2.1,5-3.8,10.5-5.2,16.2c-3.1-2.7-7.9-3-11.4-0.4c-3.9,3-4.7,8.6-1.7,12.6c0,0,0,0.1,0.1,0.1c2.8,3.5,5.9,6.8,9.4,9.8
	c-2.6,26.1-0.9,56.3,0.7,85.9l0,0.1c2.6,46.4,5.3,94-8.6,122.6c-11,0.4-22.1,0.6-33.1,0.1c-5-0.2-9.2,3.7-9.4,8.6
	c-0.2,5,3.7,9.2,8.6,9.4c5,0.2,10.2,0.3,15.2,0.3c1.3,0,2.5,0,3.8,0c-1.1,0.8-2.3,1.6-3.5,2.3c-4.4,2.4-5.9,7.8-3.5,12.2
	c1.5,2.9,4.6,4.7,7.9,4.7c1.5,0,2.8-0.3,4.3-1.1c0.1,0,0.1-0.1,0.2-0.1c8.4-4.8,15-11.1,20.2-18.8c16.4-0.9,32.7-2.5,48.6-4l3.8-0.4
	c31.8-3.1,64.7-6.3,97.4-4.8c2.4,0.1,4.7-0.7,6.5-2.3c1.8-1.6,2.8-3.9,2.9-6.3C263.7,254.9,262.9,252.6,261.2,250.8z M118.7,60.6
	c24,13.3,55.5,20.9,84.4,27.9l2.9,0.7c1.9,0.5,3.7,0.9,5.6,1.3c-17.1,6.6-33.8,14.2-49,21.1l-1.4,0.6c-13.5,6.1-27.4,12.3-41,17.8
	C118.7,106.1,117.5,82,118.7,60.6z"/>
</svg>
