<?xml version="1.0" encoding="utf-8"?>
<!-- Generator: Adobe Illustrator 19.1.0, SVG Export Plug-In . SVG Version: 6.00 Build 0)  -->
<svg version="1.1" id="Layer_1" xmlns="http://www.w3.org/2000/svg" xmlns:xlink="http://www.w3.org/1999/xlink" x="0px" y="0px"
	 viewBox="0 0 300 300" style="enable-background:new 0 0 300 300;" xml:space="preserve">
<style type="text/css">
	.st0{fill:#231916;}
</style>
<g>
	<path class="st0" d="M133.1,187.5c-21.7-0.9-67.7,1.9-86.2,19c-5.5,5.2-8.4,11.2-8.7,17.9c-0.2,4.7,3.5,8.7,8.1,8.9l0.4,0
		c4.6,0,8.3-3.6,8.5-8.3c0-1.3,0.4-3.4,3.2-6c12.4-11.5,50.7-15.4,73.9-14.4c4.7,0.2,8.7-3.5,8.9-8.1c0.1-2.3-0.7-4.4-2.2-6.1
		C137.4,188.6,135.3,187.6,133.1,187.5z"/>
	<path class="st0" d="M266,260.4c-20.9-12.4-48.4-17.6-83.9-15.9c-2.8-7.4-5.8-14.9-8.7-22.3l-0.2-0.6c-7.3-18.4-14.8-37.1-19-54.8
		c0-0.1,0.1-0.1,0.1-0.2c5.5-9.9,17.8-22,32.9-32.3c14.3-9.8,28.4-16,35.9-15.8c4.6,0.2,8.6-3.5,8.8-8.2l0-0.2
		c0-4.6-3.6-8.4-8.3-8.6c-0.2,0-0.4,0-0.6,0c-19.3,0-52.4,20-72.1,41.6c-0.2-8.9,1-17.4,4.1-25.2c0.8-2.1,0.8-4.4-0.1-6.5
		c-0.9-2.1-2.6-3.8-4.7-4.6c-0.6-0.2-1.3-0.4-1.9-0.5c0.5-0.6,1.1-1.1,1.6-1.7c11.1-12.3,18-28,18.8-43.1c1.4-27.8-16-48.4-46.6-55
		c-16.8-3.7-30.7-2-41.5,5c-9.4,6.1-14.3,15.1-16.8,21.5c-5.5,14.2-5.8,33.1-0.8,52c4.9,18.8,13.9,33,24.5,39
		c4.2,2.3,8.4,3.3,12.6,3.1c1.2,0.6,2.5,0.9,3.8,0.9h0.7l0.2,0c11.8-1.3,23-5.7,32.8-12.5c-11.7,34.1,4.3,74,19.7,112.6l0.1,0.4
		c3.3,8.2,6.6,16.5,9.6,24.6c0,0.3,0,0.6,0,0.9c0.2,1.9,0.9,3.6,2,4.9c3.5,10.2,6.3,20.1,7.6,29l0,0.1c0.7,4.2,4.3,7.2,8.4,7.2h1
		l0.3-0.1c4.5-0.8,7.7-4.9,7.1-9.6c-1.1-7.8-3.2-16-5.8-24.3c29.4-0.9,52.2,3.7,69.4,13.8c1.3,0.7,2.8,1.1,4.3,1.1
		c2.9,0,5.6-1.5,7.3-4l0.1-0.1C271.4,268,270.1,262.9,266,260.4z M151.7,60.5c-0.9,15.8-11.7,35.6-30.8,45.2
		c-0.5-0.9-1.2-1.8-2.1-2.4c-1.8-1.4-4.1-2-6.3-1.7c-2.3,0.3-4.3,1.5-5.6,3.2c-5.8,7.4-9.3,5.4-11,4.5c-6.3-3.6-12.8-14.8-16.5-28.5
		c-4-15-3.9-30.6,0.3-41.6c4.5-11.8,13-17.5,26.2-17.5c3.9,0,8.2,0.5,12.6,1.4C148.7,29.6,152.3,49.3,151.7,60.5z"/>
</g>
</svg>
